<svg width="20" height="14" viewBox="0 0 20 14" fill="none" xmlns="http://www.w3.org/2000/svg">
<path d="M2.01677 7.5944C1.90328 7.4147 1.84654 7.32485 1.81477 7.18626C1.79091 7.08216 1.79091 6.918 1.81477 6.8139C1.84654 6.67532 1.90328 6.58547 2.01677 6.40577C2.95461 4.92078 5.74617 1.16675 10.0003 1.16675C14.2545 1.16675 17.0461 4.92078 17.9839 6.40577C18.0974 6.58547 18.1541 6.67532 18.1859 6.8139C18.2098 6.918 18.2098 7.08216 18.1859 7.18626C18.1541 7.32485 18.0974 7.4147 17.9839 7.5944C17.0461 9.07938 14.2545 12.8334 10.0003 12.8334C5.74617 12.8334 2.95461 9.07938 2.01677 7.5944Z" stroke="#0A0D12" stroke-width="2" stroke-linecap="round" stroke-linejoin="round"/>
<path d="M10.0003 9.50008C11.381 9.50008 12.5003 8.38079 12.5003 7.00008C12.5003 5.61937 11.381 4.50008 10.0003 4.50008C8.61962 4.50008 7.50034 5.61937 7.50034 7.00008C7.50034 8.38079 8.61962 9.50008 10.0003 9.50008Z" stroke="#0A0D12" stroke-width="2" stroke-linecap="round" stroke-linejoin="round"/>
</svg>
